<svg width="149" height="55" viewBox="0 0 149 55" fill="none" xmlns="http://www.w3.org/2000/svg">
<path d="M0 28.3807H7.03977C7.07386 29.2443 7.46023 29.9261 8.19886 30.4261C8.9375 30.9261 9.89205 31.1761 11.0625 31.1761C12.2443 31.1761 13.2386 30.9034 14.0455 30.358C14.8523 29.8011 15.2557 29.0057 15.2557 27.9716C15.2557 27.3352 15.0966 26.7841 14.7784 26.3182C14.4602 25.8409 14.017 25.4659 13.4489 25.1932C12.8807 24.9205 12.2216 24.7841 11.4716 24.7841H7.70455V20.0284H11.4716C12.5966 20.0284 13.4602 19.767 14.0625 19.2443C14.6761 18.7216 14.983 18.0682 14.983 17.2841C14.983 16.3977 14.6648 15.6875 14.0284 15.1534C13.4034 14.608 12.5568 14.3352 11.4886 14.3352C10.4091 14.3352 9.51136 14.5795 8.79545 15.0682C8.09091 15.5455 7.72727 16.1705 7.70455 16.9432H0.698864C0.721591 15.375 1.19318 14.017 2.11364 12.8693C3.04545 11.7216 4.29545 10.8352 5.86364 10.2102C7.44318 9.58523 9.21023 9.27273 11.1648 9.27273C13.3011 9.27273 15.142 9.57387 16.6875 10.1761C18.2443 10.767 19.4375 11.6136 20.267 12.7159C21.108 13.8182 21.5284 15.1307 21.5284 16.6534C21.5284 18.0398 21.0739 19.1989 20.1648 20.1307C19.2557 21.0625 17.983 21.7273 16.3466 22.125V22.3977C17.4261 22.4659 18.4034 22.7557 19.2784 23.267C20.1534 23.7784 20.8523 24.483 21.375 25.3807C21.8977 26.267 22.1591 27.3182 22.1591 28.5341C22.1591 30.1591 21.6818 31.5511 20.7273 32.7102C19.7841 33.8693 18.4773 34.7614 16.8068 35.3864C15.1477 36 13.2443 36.3068 11.0966 36.3068C9.00568 36.3068 7.13068 36.0057 5.47159 35.4034C3.82386 34.7898 2.51136 33.892 1.53409 32.7102C0.568182 31.5284 0.0568181 30.0852 0 28.3807Z" fill="#0066FF"/>
<path d="M31.6781 36.2898C30.0077 36.2898 28.519 36 27.2122 35.4205C25.9054 34.8295 24.8713 33.9602 24.1099 32.8125C23.3599 31.6534 22.9849 30.2102 22.9849 28.483C22.9849 27.0284 23.252 25.8068 23.7861 24.8182C24.3202 23.8295 25.0474 23.0341 25.9679 22.4318C26.8884 21.8295 27.9338 21.375 29.1043 21.0682C30.2861 20.7614 31.5247 20.5455 32.8202 20.4205C34.3429 20.2614 35.5702 20.1136 36.502 19.9773C37.4338 19.8295 38.1099 19.6136 38.5304 19.3295C38.9509 19.0455 39.1611 18.625 39.1611 18.0682V17.9659C39.1611 16.8864 38.8202 16.0511 38.1384 15.4602C37.4679 14.8693 36.5134 14.5739 35.2747 14.5739C33.9679 14.5739 32.9281 14.8636 32.1554 15.4432C31.3827 16.0114 30.8713 16.7273 30.6213 17.5909L23.9054 17.0455C24.2463 15.4545 24.9168 14.0795 25.9168 12.9205C26.9168 11.75 28.2065 10.8523 29.7861 10.2273C31.377 9.59091 33.2179 9.27273 35.3088 9.27273C36.7634 9.27273 38.1554 9.44318 39.4849 9.78409C40.8259 10.125 42.0134 10.6534 43.0474 11.3693C44.0929 12.0852 44.9168 13.0057 45.519 14.1307C46.1213 15.2443 46.4224 16.5795 46.4224 18.1364V35.7955H39.5361V32.1648H39.3315C38.9111 32.983 38.3486 33.7045 37.644 34.3295C36.9395 34.9432 36.0929 35.4261 35.1043 35.7784C34.1156 36.1193 32.9736 36.2898 31.6781 36.2898ZM33.7577 31.2784C34.8259 31.2784 35.769 31.0682 36.5872 30.6477C37.4054 30.2159 38.0474 29.6364 38.5134 28.9091C38.9793 28.1818 39.2122 27.358 39.2122 26.4375V23.6591C38.9849 23.8068 38.6724 23.9432 38.2747 24.0682C37.8884 24.1818 37.4509 24.2898 36.9622 24.392C36.4736 24.483 35.9849 24.5682 35.4963 24.6477C35.0077 24.7159 34.5645 24.7784 34.1668 24.8352C33.3145 24.9602 32.5702 25.1591 31.9338 25.4318C31.2974 25.7045 30.8031 26.0739 30.4509 26.5398C30.0986 26.9943 29.9224 27.5625 29.9224 28.2443C29.9224 29.233 30.2804 29.9886 30.9963 30.5114C31.7236 31.0227 32.644 31.2784 33.7577 31.2784Z" fill="#0066FF"/>
<path d="M71.423 0L73.6389 4.73864C72.9003 5.35227 72.0821 5.80682 71.1844 6.10227C70.2867 6.38636 69.2128 6.57386 67.9628 6.66477C66.7241 6.75568 65.2128 6.81818 63.4287 6.85227C61.406 6.875 59.7582 7.19886 58.4855 7.82386C57.2128 8.44886 56.2469 9.43182 55.5878 10.7727C54.9287 12.1023 54.4969 13.8409 54.2923 15.9886H54.548C55.3321 14.3864 56.4344 13.1477 57.8548 12.2727C59.2867 11.3977 61.0537 10.9602 63.156 10.9602C65.3832 10.9602 67.3321 11.4489 69.0026 12.4261C70.6844 13.4034 71.9912 14.8068 72.923 16.6364C73.8548 18.4659 74.3207 20.6591 74.3207 23.2159C74.3207 25.875 73.798 28.1875 72.7526 30.1534C71.7185 32.108 70.2469 33.625 68.3378 34.7045C66.4287 35.7727 64.156 36.3068 61.5196 36.3068C58.8719 36.3068 56.5878 35.75 54.6673 34.6364C52.7582 33.5227 51.281 31.8807 50.2355 29.7102C49.2014 27.5398 48.6844 24.8693 48.6844 21.6989V19.5511C48.6844 13.2443 49.9117 8.56818 52.3662 5.52273C54.8207 2.47727 58.4287 0.931819 63.1901 0.886365C64.4855 0.863637 65.656 0.857955 66.7014 0.869319C67.7469 0.880683 68.6616 0.829547 69.4457 0.715911C70.2412 0.602275 70.9003 0.363638 71.423 0ZM61.5537 30.6818C62.6673 30.6818 63.6219 30.392 64.4173 29.8125C65.2241 29.233 65.8435 28.4034 66.2753 27.3239C66.7185 26.2443 66.9401 24.9545 66.9401 23.4545C66.9401 21.9659 66.7185 20.7045 66.2753 19.6705C65.8435 18.625 65.2241 17.8295 64.4173 17.2841C63.6105 16.7386 62.6446 16.4659 61.5196 16.4659C60.6787 16.4659 59.923 16.6193 59.2526 16.9261C58.5821 17.233 58.0082 17.6875 57.531 18.2898C57.0651 18.8807 56.7014 19.6136 56.4401 20.4886C56.1901 21.3523 56.0651 22.3409 56.0651 23.4545C56.0651 25.6932 56.548 27.4602 57.5139 28.7557C58.4912 30.0398 59.8378 30.6818 61.5537 30.6818Z" fill="#0066FF"/>
<path d="M88.5699 36.3068C85.9222 36.3068 83.6324 35.7443 81.7006 34.6193C79.7801 33.483 78.2972 31.9034 77.2517 29.8807C76.2063 27.8466 75.6835 25.4886 75.6835 22.8068C75.6835 20.1023 76.2063 17.7386 77.2517 15.7159C78.2972 13.6818 79.7801 12.1023 81.7006 10.9773C83.6324 9.84091 85.9222 9.27273 88.5699 9.27273C91.2176 9.27273 93.5017 9.84091 95.4222 10.9773C97.354 12.1023 98.8426 13.6818 99.8881 15.7159C100.934 17.7386 101.456 20.1023 101.456 22.8068C101.456 25.4886 100.934 27.8466 99.8881 29.8807C98.8426 31.9034 97.354 33.483 95.4222 34.6193C93.5017 35.7443 91.2176 36.3068 88.5699 36.3068ZM88.604 30.6818C89.8085 30.6818 90.8142 30.3409 91.621 29.6591C92.4278 28.9659 93.0358 28.0227 93.4449 26.8295C93.8653 25.6364 94.0756 24.2784 94.0756 22.7557C94.0756 21.233 93.8653 19.875 93.4449 18.6818C93.0358 17.4886 92.4278 16.5455 91.621 15.8523C90.8142 15.1591 89.8085 14.8125 88.604 14.8125C87.3881 14.8125 86.3653 15.1591 85.5358 15.8523C84.7176 16.5455 84.0983 17.4886 83.6778 18.6818C83.2688 19.875 83.0642 21.233 83.0642 22.7557C83.0642 24.2784 83.2688 25.6364 83.6778 26.8295C84.0983 28.0227 84.7176 28.9659 85.5358 29.6591C86.3653 30.3409 87.3881 30.6818 88.604 30.6818Z" fill="#0066FF"/>
<path d="M101.242 15.3239V9.61364H124.97V15.3239H116.532V35.7955H109.612V15.3239H101.242Z" fill="#0066FF"/>
<path d="M133.5 36.2898C131.83 36.2898 130.341 36 129.034 35.4205C127.727 34.8295 126.693 33.9602 125.932 32.8125C125.182 31.6534 124.807 30.2102 124.807 28.483C124.807 27.0284 125.074 25.8068 125.608 24.8182C126.142 23.8295 126.869 23.0341 127.79 22.4318C128.71 21.8295 129.756 21.375 130.926 21.0682C132.108 20.7614 133.347 20.5455 134.642 20.4205C136.165 20.2614 137.392 20.1136 138.324 19.9773C139.256 19.8295 139.932 19.6136 140.352 19.3295C140.773 19.0455 140.983 18.625 140.983 18.0682V17.9659C140.983 16.8864 140.642 16.0511 139.96 15.4602C139.29 14.8693 138.335 14.5739 137.097 14.5739C135.79 14.5739 134.75 14.8636 133.977 15.4432C133.205 16.0114 132.693 16.7273 132.443 17.5909L125.727 17.0455C126.068 15.4545 126.739 14.0795 127.739 12.9205C128.739 11.75 130.028 10.8523 131.608 10.2273C133.199 9.59091 135.04 9.27273 137.131 9.27273C138.585 9.27273 139.977 9.44318 141.307 9.78409C142.648 10.125 143.835 10.6534 144.869 11.3693C145.915 12.0852 146.739 13.0057 147.341 14.1307C147.943 15.2443 148.244 16.5795 148.244 18.1364V35.7955H141.358V32.1648H141.153C140.733 32.983 140.17 33.7045 139.466 34.3295C138.761 34.9432 137.915 35.4261 136.926 35.7784C135.937 36.1193 134.795 36.2898 133.5 36.2898ZM135.58 31.2784C136.648 31.2784 137.591 31.0682 138.409 30.6477C139.227 30.2159 139.869 29.6364 140.335 28.9091C140.801 28.1818 141.034 27.358 141.034 26.4375V23.6591C140.807 23.8068 140.494 23.9432 140.097 24.0682C139.71 24.1818 139.273 24.2898 138.784 24.392C138.295 24.483 137.807 24.5682 137.318 24.6477C136.83 24.7159 136.386 24.7784 135.989 24.8352C135.136 24.9602 134.392 25.1591 133.756 25.4318C133.119 25.7045 132.625 26.0739 132.273 26.5398C131.92 26.9943 131.744 27.5625 131.744 28.2443C131.744 29.233 132.102 29.9886 132.818 30.5114C133.545 31.0227 134.466 31.2784 135.58 31.2784Z" fill="#0066FF"/>
<path d="M73.5795 54.8239C69.3409 54.8239 65.4432 54.2557 61.8864 53.1193C58.3295 51.9943 55.0341 50.267 52 47.9375V41C53.125 41.8864 54.5 42.7102 56.125 43.4716C57.75 44.233 59.5227 44.8977 61.4432 45.4659C63.375 46.0341 65.375 46.4773 67.4432 46.7955C69.5114 47.1136 71.5568 47.2727 73.5795 47.2727C76.2727 47.2727 78.9886 46.9943 81.7273 46.4375C84.4773 45.892 87.0227 45.142 89.3636 44.1875C91.7159 43.2443 93.642 42.1818 95.142 41V47.9375C92.108 50.267 88.8125 51.9943 85.2557 53.1193C81.6989 54.2557 77.8068 54.8239 73.5795 54.8239Z" fill="#0066FF"/>
</svg>
